<svg width="1086" height="238" viewBox="0 0 1086 238" fill="none" xmlns="http://www.w3.org/2000/svg">
<path fill-rule="evenodd" clip-rule="evenodd" d="M652 118L657 131L652 118ZM45 91L42 98C43 98 43 98 44 98C47 98 48 98 50 97C51 97 52 96 52 95C52 94 52 93 52 92C51 91 50 91 48 91C47 91 45 91 45 91ZM619 65H637L623 111H605L619 65ZM372 31C366 25 354 28 344 32C344 33 344 34 344 35C344 49 338 60 328 66C334 66 342 64 350 59C366 50 377 38 372 31ZM656 118H485L487 131H660L656 118ZM9 156L8 162H19C17 166 14 167 10 167C8 167 5 167 3 166L0 174C4 175 8 175 10 175C25 175 32 166 32 156C32 150 29 146 23 144C19 143 14 143 9 144L7 152C11 151 19 150 20 156H9ZM37 152L32 175H43L45 166H49L47 175H58L63 152H52L50 160H46L48 152H37ZM90 166V165C91 163 91 162 91 160C91 159 91 158 90 157C90 155 87 151 80 151C68 151 64 161 64 166C64 169 65 171 67 173C70 175 73 175 76 175C79 175 83 175 87 174L88 168C85 169 82 170 79 170C74 170 74 167 74 166H90ZM75 161C76 157 78 157 79 157C80 157 81 157 81 159C81 160 81 160 81 161H75ZM107 152H96L89 184H101L103 172C105 175 108 175 110 175C117 175 123 169 123 160C123 152 117 151 115 151C111 151 108 153 106 156L107 152ZM108 159C109 159 111 159 111 161C111 162 110 165 110 166C109 168 107 168 106 168C106 168 104 168 104 166C104 164 105 163 105 161C106 159 107 159 108 159ZM146 158L147 152H128L123 175H134L138 158H146ZM166 152L159 162L161 152H151L146 175H157L164 164H165L162 175H173L177 152H166ZM207 152H190C183 152 179 156 179 161C179 164 181 165 183 166L176 175H187L192 167H193L191 175H203L207 152ZM195 157L194 162H193C192 162 191 162 191 160C191 159 191 157 194 157H195ZM223 152L222 158H228L225 175H236L239 158H246L247 152H223ZM250 152L245 175H262C269 175 272 171 272 167C272 165 270 163 268 163C272 162 273 159 273 156C273 152 268 152 267 152H250ZM259 157H260C261 157 263 157 263 158C263 159 263 161 259 161H258L259 157ZM257 165H259C260 165 262 165 262 167C262 168 261 170 258 170H256L257 165ZM293 151C281 151 275 159 275 166C275 169 277 175 288 175C299 175 305 168 305 161C305 156 302 151 293 151ZM291 158C293 158 293 159 293 160C293 162 293 164 292 166C292 167 291 169 289 169C288 169 287 168 287 166C287 165 288 161 289 160C289 159 290 158 291 158ZM333 166V165C334 163 334 162 334 160C334 159 334 158 333 157C333 155 330 151 323 151C311 151 307 161 307 166C307 169 308 171 310 173C312 175 316 175 319 175C322 175 326 175 330 174L331 168C328 169 325 170 322 170C317 170 317 167 317 166H333ZM318 161C319 157 321 157 322 157C323 157 324 157 324 159C324 160 324 160 324 161H318ZM357 158L359 152H339L334 175H346L349 158H357ZM375 151C364 151 358 159 358 166C358 169 360 175 371 175C381 175 388 168 388 161C388 156 385 151 375 151ZM374 158C376 158 376 159 376 160C376 162 375 164 375 166C374 167 373 169 372 169C371 169 370 168 370 166C370 165 371 161 372 160C372 159 373 158 374 158ZM434 140C432 141 430 142 427 142C422 142 417 142 412 145C406 149 403 158 403 165C403 169 404 175 415 175C428 175 432 167 432 162C432 156 427 153 421 153C418 153 414 154 411 157V156C412 153 415 151 417 151C420 150 422 150 426 150C429 150 431 149 432 148L434 140ZM416 169C415 169 414 167 414 167C414 165 415 163 415 162C416 160 417 160 418 160C420 160 420 161 420 162C420 162 420 163 420 164C419 166 418 169 416 169ZM435 152L438 175V176C437 178 435 178 434 178C433 178 432 178 431 177L430 184C432 185 434 185 436 185C443 185 447 182 451 176L463 152H452L447 166H446V152H435ZM492 152H469L468 156C467 161 466 165 462 168H460L457 181H468L469 175H480L479 181H489L492 168H489L492 152ZM478 168H472C475 165 476 163 476 160L477 158H480L478 168ZM495 152L499 175V176C498 178 496 178 495 178C494 178 493 178 491 177L490 184C492 185 495 185 497 185C503 185 508 182 511 176L524 152H513L507 166V152H495ZM526 152L521 175H552L551 181H561L563 168H560L564 152H553L550 168H546L550 152H540L536 168H533L536 152H526ZM592 166L593 165C593 163 593 162 593 160C593 159 593 158 593 157C592 155 590 151 582 151C570 151 566 161 566 166C566 169 567 171 569 173C572 175 576 175 578 175C581 175 585 175 589 174L590 168C588 169 584 170 581 170C577 170 576 167 577 166H592ZM578 161C578 157 581 157 581 157C582 157 584 157 584 159C584 160 584 160 583 161H578ZM616 158L618 152H598L594 175H605L608 158H616ZM635 151C623 151 617 159 617 166C617 169 619 175 630 175C641 175 647 168 647 161C647 156 644 151 635 151ZM633 158C635 158 635 159 635 160C635 162 634 164 634 166C633 167 633 169 631 169C630 169 629 168 629 166C629 165 630 161 631 160C631 159 632 158 633 158ZM654 144L652 163H660L666 144H654ZM650 166L649 175H658L660 166H650ZM643 76H662L648 92L654 111H634L630 92L643 76ZM565 76H583L579 87H590L593 76H611L600 111H582L586 98H576L572 111H554L565 76ZM480 78C487 76 493 75 497 75C503 75 506 76 509 78C511 81 512 84 512 89C512 90 511 91 511 93C510 95 509 97 508 99C507 101 505 103 503 105C501 106 499 108 496 109C493 110 490 111 487 111C485 112 483 112 480 112C476 112 473 111 471 110L474 132H458V114L449 132H433L430 114L424 132H408L423 99H440L444 115L451 99H462C462 98 462 96 462 94L467 78C469 73 471 70 475 67C479 64 483 63 488 62C492 61 497 61 503 60C509 60 513 60 515 60L511 73C507 72 504 71 499 71C496 71 493 72 490 72C487 73 485 73 483 74C481 75 480 76 480 77C480 78 480 78 480 78ZM532 111C531 111 527 112 527 112C525 112 523 112 522 112C517 112 514 111 512 109C510 107 509 105 510 102C511 99 512 97 514 96C515 94 517 93 519 92C521 92 524 91 527 91C530 90 532 90 535 89C536 89 537 89 537 89C538 88 538 88 539 87L538 86C537 86 536 86 535 86C531 86 526 87 518 89L523 78C531 77 537 76 542 76C547 76 551 77 554 78C557 79 558 82 557 84L549 111H532ZM535 102L536 98C534 99 532 99 531 99C530 100 529 100 529 100C528 101 528 101 528 101C528 102 528 102 528 103C529 103 529 103 530 103C531 103 531 103 532 103C532 103 534 102 535 102ZM144 116C143 108 143 100 143 92L131 111H113L138 76H158L160 99C165 99 170 98 174 98C177 98 180 98 183 99C186 100 188 101 190 102C193 105 192 110 189 113C188 115 186 116 185 117C183 118 181 119 179 119C177 120 174 120 171 120C170 121 169 121 169 121C168 122 168 122 168 122C168 123 168 123 169 123C169 124 170 124 172 124C175 124 180 123 187 121L184 131C178 132 172 132 167 132C162 132 158 132 155 130C152 129 150 127 150 124C151 121 152 119 154 117C156 115 158 114 161 113C163 113 167 112 171 111C172 111 173 111 174 111C174 110 174 110 174 109C175 109 174 108 173 108C173 108 172 107 170 107C160 107 153 113 144 116ZM17 118H146L143 131H13L17 118ZM48 80C49 80 56 80 57 80C61 80 64 80 67 82C69 83 71 85 71 88C72 90 72 93 71 96C70 98 69 101 67 103C65 105 63 107 60 109C57 110 55 111 52 111H19L33 64H74L71 77H49L48 80ZM114 99L107 110C97 111 85 114 77 107C74 105 73 100 75 94C75 92 76 90 77 87C79 85 81 83 83 81C86 79 89 78 92 77C99 75 107 74 113 78C116 79 117 81 118 84C119 86 119 89 118 92C118 93 118 93 117 94C117 95 117 95 117 96H91C91 99 93 101 98 101C103 101 110 100 114 99ZM93 90H102V89C102 88 102 87 102 86C100 84 97 85 96 86C94 87 94 88 93 90ZM211 132H207C205 132 204 133 202 133C198 133 195 132 193 130C190 128 189 126 190 123C190 121 191 119 192 117C193 116 195 115 197 114C199 113 201 113 203 112C206 112 209 112 211 111C212 111 212 111 213 111C213 110 214 110 214 109C214 109 214 109 213 108C212 108 211 108 210 108C207 108 202 109 195 111L198 101C205 99 211 99 215 99C220 99 224 100 227 101C229 102 231 104 231 107L228 132H211ZM237 101C244 99 250 99 255 99C261 99 265 100 267 101C269 103 270 105 270 108C270 109 269 111 268 112C266 113 265 114 263 115C265 116 267 117 268 118C269 119 269 121 269 123V124C268 126 267 128 265 129C263 131 261 131 258 132C255 133 252 133 248 133C244 133 239 133 234 132V122C238 123 243 125 248 125C249 125 251 125 252 124C253 123 254 122 254 121C254 119 252 117 249 115C250 115 251 114 252 113C253 113 254 112 254 111C254 109 254 109 252 108C252 108 251 108 250 108C245 108 240 109 235 111L237 101ZM345 109C347 110 348 113 348 116C348 119 345 122 342 121C340 121 339 118 339 115C340 111 342 109 345 109ZM276 99H292V102C293 101 295 100 297 99C300 98 302 98 305 98C307 98 309 98 311 99C313 100 315 101 316 103C317 105 318 107 317 109L315 132H298L300 115C300 114 300 113 299 112C298 111 298 111 297 111C295 111 294 111 293 113C291 114 291 115 290 118L289 132H272L276 99ZM386 111C385 112 384 114 384 115C384 117 384 118 385 120C386 121 387 122 388 122C389 122 391 121 392 120C393 119 394 117 394 116C394 114 394 113 393 111C392 110 391 109 390 109C389 109 388 110 386 111ZM384 99C387 98 390 98 392 98C395 98 397 98 400 99C402 100 404 100 405 102C407 103 408 104 409 106C410 108 411 109 411 111C411 112 411 114 411 115C411 117 410 119 409 121C408 122 407 124 405 126C404 127 402 129 400 130C398 131 395 131 393 132C390 132 388 132 386 132C382 132 378 131 375 130C372 128 370 126 369 124C368 121 367 118 367 115C368 112 370 108 372 105C375 102 379 100 384 99ZM324 100C325 100 326 100 329 100C332 99 334 99 336 99C338 99 340 99 343 99C354 99 360 101 363 106C364 110 365 113 364 117C364 120 363 123 362 125C361 127 359 129 356 131C354 132 352 133 349 133C345 133 341 132 337 130L335 146H318L324 100ZM212 123L213 119C212 120 210 120 208 121H207C206 122 206 122 206 122C206 123 206 124 207 124C207 124 208 124 209 124C210 124 211 124 212 123ZM484 88C483 90 481 92 481 94C480 95 480 97 481 98C481 100 482 100 484 100C485 100 487 100 489 98C490 97 491 96 492 94C492 92 492 91 492 90C492 89 492 88 491 87C491 87 490 86 489 86C488 86 486 87 484 88ZM253 31C258 25 270 28 281 32C281 33 281 34 281 35C281 49 287 60 297 66C290 66 283 64 274 59C259 50 248 38 253 31ZM388 56C385 53 378 52 370 51C366 57 361 62 355 66C352 68 349 69 346 70C350 70 354 70 359 69C379 67 394 62 388 56ZM253 50C243 51 236 53 233 56C226 63 240 71 261 74C274 76 301 78 312 71C324 78 351 76 364 74C385 71 399 63 392 56C389 53 381 51 371 50C376 42 378 35 374 29C370 24 357 23 343 28C340 12 328 0 312 0C297 0 284 12 281 28C268 23 254 24 251 29C247 35 248 42 253 50ZM236 56C240 53 247 52 255 51C258 57 264 62 270 66C273 67 276 69 279 70C275 70 270 70 266 69C246 67 231 62 236 56ZM312 4C325 4 335 16 336 31C335 32 333 33 332 34C331 35 329 35 328 36V42C330 40 333 38 337 36C336 53 326 67 312 67C299 67 288 53 288 36C292 38 295 40 297 42L296 36C295 35 294 35 293 34C292 33 290 32 288 31C290 16 300 4 312 4Z" fill="white"/>
<path fill-rule="evenodd" clip-rule="evenodd" d="M914 6L907 29H913L917 17H927L930 12L933 0H918L914 6ZM926 6H920L918 12H924L926 6ZM829 0L826 6L819 29H825L832 6H842L845 0H829ZM940 0L937 6L930 29H946L949 23L956 0H940ZM943 6H948L943 23H938L943 6ZM749 29L756 6L759 0C765 0 768 0 775 0L772 6H762L760 12H772L768 23L765 29H749ZM763 23H757L758 17H764L763 23ZM988 29L995 6L998 0C1004 0 1007 0 1014 0L1011 6H1001L999 12H1011L1007 23L1004 29H988ZM1001 23H996L997 17H1003L1001 23ZM783 0L779 6L773 29H788L792 23H780L782 17H792L795 12H783L785 6H795L798 0H783ZM878 29L881 20V15L884 9L887 0H871L868 6H879L878 12H868L864 17H876L874 23H864L861 29H878ZM893 0L884 29H890L897 6H903L896 29H902L910 0H893ZM1043 0L1035 29H1040L1044 17H1050L1046 29H1052L1061 0H1055L1051 12H1046L1049 0H1043ZM1066 0L1058 29H1064L1067 17H1072V21V29H1078V16V15L1079 13L1086 0H1080L1076 8L1074 12H1069L1072 0H1066ZM801 11L796 29H802L807 12L810 6H814C812 14 810 21 807 29H813L822 0H808L801 11ZM843 11L838 29H843L847 17H853L849 29H855L864 0H850L843 11ZM849 12L852 6H856L854 12H849ZM1017 11L1011 29H1017L1021 17H1026L1023 29H1029L1037 0H1023L1017 11ZM1022 12L1026 6H1030L1028 12H1022ZM991 0L982 29H977L984 3L972 23H967V3L959 29H953L962 0C965 0 969 0 972 0V13L980 0C984 0 987 0 991 0Z" fill="white"/>
<path fill-rule="evenodd" clip-rule="evenodd" d="M881 100H788L778 133H871L881 100Z" fill="white"/>
<path fill-rule="evenodd" clip-rule="evenodd" d="M1073 45H922L912 77H1030L1008 155H890L880 188H1031L1073 45Z" fill="white"/>
<path fill-rule="evenodd" clip-rule="evenodd" d="M896 45H745L735 77H887L896 45Z" fill="white"/>
<path fill-rule="evenodd" clip-rule="evenodd" d="M864 155H712L703 188H855L864 155Z" fill="white"/>
<path fill-rule="evenodd" clip-rule="evenodd" d="M948 204L937 238H930L941 206L948 204Z" fill="white"/>
<path fill-rule="evenodd" clip-rule="evenodd" d="M999 204L988 238H982L986 224H973L977 211L981 204H999ZM984 211H990L988 217H981L984 211Z" fill="white"/>
<path fill-rule="evenodd" clip-rule="evenodd" d="M974 204L963 238H956L960 224H947L951 211L955 204H974ZM958 211H965L963 217H956L958 211Z" fill="white"/>
<path fill-rule="evenodd" clip-rule="evenodd" d="M727 204L723 211L715 238H733L737 231H724L730 211H742L746 204H727Z" fill="white"/>
<path fill-rule="evenodd" clip-rule="evenodd" d="M700 204L696 211L688 238H706L710 231L719 204H700ZM703 211H710L703 231H697L703 211Z" fill="white"/>
<path fill-rule="evenodd" clip-rule="evenodd" d="M781 204L777 211L769 238H787L791 231L800 204H781ZM784 211H791L784 231H778L784 211Z" fill="white"/>
<path fill-rule="evenodd" clip-rule="evenodd" d="M1008 204L1004 211L995 238H1013L1018 231L1026 204H1008ZM1011 211H1017L1011 231H1004L1011 211Z" fill="white"/>
<path fill-rule="evenodd" clip-rule="evenodd" d="M808 204L804 211L796 238H814L818 231L827 204H808ZM809 217H816L818 211H811L809 217ZM813 224H807L805 231H811L813 224Z" fill="white"/>
<path fill-rule="evenodd" clip-rule="evenodd" d="M903 204L899 211L890 238H908L912 231L921 204H903ZM903 217H910L912 211H905L903 217ZM908 224H901L899 231H906L908 224Z" fill="white"/>
<path fill-rule="evenodd" clip-rule="evenodd" d="M752 204L742 238H748L753 224H759L755 238H762L773 204H766L762 217H755L759 204H752Z" fill="white"/>
<path fill-rule="evenodd" clip-rule="evenodd" d="M860 204L850 238H856L861 224H867L863 238H870L881 204H874L869 217H863L867 204H860Z" fill="white"/>
<path fill-rule="evenodd" clip-rule="evenodd" d="M835 204L831 211L823 238H829L834 224H840L836 238H843L854 204H835ZM838 211L836 217H843L845 211H838Z" fill="white"/>
</svg>
