<svg width="268" height="350" viewBox="0 0 268 350" fill="none" xmlns="http://www.w3.org/2000/svg">
<path d="M135.192 4.08882L134 2.53066L132.808 4.08882L2.80846 174.089L2.11168 175L2.80846 175.911L132.808 345.911L134 347.469L135.192 345.911L265.192 175.911L265.888 175L265.192 174.089L135.192 4.08882Z" fill="black" stroke="#EEBF86" stroke-width="3"/>
<path d="M134 277L160 311L134 345L108 311L134 277Z" fill="black" stroke="#EEBF86" stroke-width="2"/>
<path d="M160 243L186 277L160 311L134 277L160 243Z" fill="black" stroke="#EEBF86" stroke-width="2"/>
<path d="M108 243L134 277L108 311L82 277L108 243Z" fill="black" stroke="#EEBF86" stroke-width="2"/>
<path d="M186 209L212 243L186 277L160 243L186 209Z" fill="black" stroke="#EEBF86" stroke-width="2"/>
<path d="M134 209L160 243L134 277L108 243L134 209Z" fill="black" stroke="#EEBF86" stroke-width="2"/>
<path d="M82 209L108 243L82 277L56 243L82 209Z" fill="black" stroke="#EEBF86" stroke-width="2"/>
<path d="M212 175L238 209L212 243L186 209L212 175Z" fill="black" stroke="#EEBF86" stroke-width="2"/>
<path d="M160 175L186 209L160 243L134 209L160 175Z" fill="black" stroke="#EEBF86" stroke-width="2"/>
<path d="M108 175L134 209L108 243L82 209L108 175Z" fill="black" stroke="#EEBF86" stroke-width="2"/>
<path d="M56 175L82 209L56 243L30 209L56 175Z" fill="black" stroke="#EEBF86" stroke-width="2"/>
<path d="M238 141L264 175L238 209L212 175L238 141Z" fill="black" stroke="#EEBF86" stroke-width="2"/>
<path d="M186 141L212 175L186 209L160 175L186 141Z" fill="black" stroke="#EEBF86" stroke-width="2"/>
<path d="M134 141L160 175L134 209L108 175L134 141Z" fill="black" stroke="#EEBF86" stroke-width="2"/>
<path d="M82 141L108 175L82 209L56 175L82 141Z" fill="black" stroke="#EEBF86" stroke-width="2"/>
<path d="M30 141L56 175L30 209L4 175L30 141Z" fill="black" stroke="#EEBF86" stroke-width="2"/>
<path d="M212 107L238 141L212 175L186 141L212 107Z" fill="black" stroke="#EEBF86" stroke-width="2"/>
<path d="M160 107L186 141L160 175L134 141L160 107Z" fill="black" stroke="#EEBF86" stroke-width="2"/>
<path d="M108 107L134 141L108 175L82 141L108 107Z" fill="black" stroke="#EEBF86" stroke-width="2"/>
<path d="M56 107L82 141L56 175L30 141L56 107Z" fill="black" stroke="#EEBF86" stroke-width="2"/>
<path d="M186 73L212 107L186 141L160 107L186 73Z" fill="black" stroke="#EEBF86" stroke-width="2"/>
<path d="M134 73L160 107L134 141L108 107L134 73Z" fill="black" stroke="#EEBF86" stroke-width="2"/>
<path d="M82 73L108 107L82 141L56 107L82 73Z" fill="black" stroke="#EEBF86" stroke-width="2"/>
<path d="M160 39L186 73L160 107L134 73L160 39Z" fill="black" stroke="#EEBF86" stroke-width="2"/>
<path d="M108 39L134 73L108 107L82 73L108 39Z" fill="black" stroke="#EEBF86" stroke-width="2"/>
<path d="M134 5L160 39L134 73L108 39L134 5Z" fill="black" stroke="#EEBF86" stroke-width="2"/>
</svg>
